<svg xmlns="http://www.w3.org/2000/svg" viewBox="0 0 128 128">
  <defs>
    <linearGradient id="g" x1="0" y1="0" x2="1" y2="1">
      <stop stop-color="#0f62fe"/>
      <stop offset="1" stop-color="#111827"/>
    </linearGradient>
  </defs>
  <circle cx="64" cy="64" r="62" fill="url(#g)"/>
  <path d="M70 34c-23 0-39 16-39 39s16 39 40 39c13 0 24-4 32-12V69H69v16h16v6c-3 2-8 4-14 4-13 0-22-9-22-22s9-22 22-22c8 0 14 3 19 9l13-12c-8-9-19-14-33-14z" fill="#fff"/>
  <circle cx="101" cy="31" r="9" fill="#38bdf8"/>
</svg>
